<svg width="55" height="55" viewBox="0 0 55 55" fill="none" xmlns="http://www.w3.org/2000/svg"><circle cx="27.5" cy="27.5" r="27.5" fill="#EA4C89"/><path fill-rule="evenodd" clip-rule="evenodd" d="M20.6219 13.3893C20.0694 12.0611 19.4885 12.0305 18.9643 12.0153C18.5393 12 18.0435 12 17.5476 12C17.0518 12 16.2584 12.1985 15.5784 12.9924C14.8984 13.7863 13 15.71 13 19.6337C13 23.5422 15.6492 27.3285 16.0176 27.8629C16.3859 28.3973 21.1319 36.6875 28.6263 39.8784C34.8598 42.5349 36.1348 42.0006 37.4807 41.8631C38.8266 41.7257 41.8441 39.9394 42.4675 38.0768C43.0767 36.2142 43.0767 34.6264 42.8925 34.2905C42.7083 33.9546 42.2125 33.7561 41.4758 33.3592C40.7391 32.9622 37.1123 31.0385 36.4323 30.7637C35.7523 30.5042 35.2565 30.3668 34.7748 31.1607C34.2789 31.9546 32.8622 33.7409 32.4372 34.2752C32.0122 34.8096 31.573 34.8707 30.8363 34.4737C30.0996 34.0767 27.7196 33.237 24.9003 30.5194C22.7044 28.4125 21.2169 25.8018 20.7919 25.0079C20.3669 24.214 20.7494 23.7865 21.1177 23.3895C21.4436 23.0384 21.8544 22.4582 22.2228 22.0002C22.5911 21.5422 22.7186 21.2063 22.9594 20.6719C23.2003 20.1376 23.0869 19.6795 22.9028 19.2826C22.7186 18.9009 21.2736 14.9619 20.6219 13.3893Z" fill="#fff"/></svg>