<svg width="55" height="55" viewBox="0 0 55 55" fill="none" xmlns="http://www.w3.org/2000/svg"><circle cx="27.5" cy="27.5" r="27.5" fill="#45AEE4"/><path fill-rule="evenodd" clip-rule="evenodd" d="M20.6566 29.3558L15.0481 27.148C14.4784 26.9229 14.4735 26.0747 15.0415 25.8436L38.0593 16.4786C38.5472 16.2796 39.0508 16.7305 38.9445 17.2709L34.8138 38.2267C34.7164 38.7215 34.1664 38.9459 33.7782 38.6482L28.1394 34.3306C27.7969 34.0683 27.3301 34.0824 27.0024 34.364L23.8761 37.052C23.5132 37.3649 22.9664 37.1906 22.8275 36.719L20.6566 29.3558ZM33.4389 21.0606L22.4777 28.1807C22.0576 28.4543 21.8597 28.9893 21.9955 29.4903L23.1806 33.8823C23.2648 34.1935 23.6931 34.1616 23.7339 33.84L24.042 31.4315C24.1001 30.978 24.3053 30.5603 24.6232 30.2481L33.6694 21.3794C33.8386 21.2139 33.6359 20.933 33.4389 21.0606Z" fill="#fff"/><path d="M22.4777 28.1807L33.439 21.0606C33.636 20.933 33.8387 21.2139 33.6695 21.3794L24.6233 30.2481C24.3053 30.5603 24.1002 30.978 24.0421 31.4315L23.7339 33.84C23.6932 34.1616 23.2648 34.1935 23.1807 33.8823L21.9955 29.4903C21.8598 28.9893 22.0576 28.4543 22.4777 28.1807Z" fill="#EAEAEA"/></svg>