<svg width="257" height="82" viewBox="0 0 257 82" fill="none" xmlns="http://www.w3.org/2000/svg"><path fill-rule="evenodd" clip-rule="evenodd" d="M256 44.8959L256 9.76374C256 4.92366 252.076 1 247.236 1L9.75999 0.999989C4.92198 0.999989 1 4.92198 1 9.75999L0.999998 45.794C6.42222 49.3715 10 55.5179 10 62.5C10 69.4821 6.42222 75.6285 0.999997 79.206L0.999997 81L256 81L256 80.1041C249.747 76.7227 245.5 70.1074 245.5 62.5C245.5 54.8926 249.747 48.2773 256 44.8959Z" fill="#fff"/><path d="M256 44.8959L256.238 45.3357L256.5 45.1939L256.5 44.8959L256 44.8959ZM256 9.76374L255.5 9.76374L256 9.76374ZM0.999998 45.794L0.499998 45.794L0.499998 46.0632L0.724641 46.2114L0.999998 45.794ZM0.999997 79.206L0.72464 78.7886L0.499997 78.9368L0.499997 79.206L0.999997 79.206ZM0.999997 81L0.499997 81L0.499996 81.5L0.999996 81.5L0.999997 81ZM256 81L256 81.5L256.5 81.5L256.5 81L256 81ZM256 80.1041L256.5 80.1041L256.5 79.8061L256.238 79.6643L256 80.1041ZM256.5 44.8959L256.5 9.76374L255.5 9.76374L255.5 44.8959L256.5 44.8959ZM256.5 9.76374C256.5 4.64752 252.352 0.5 247.236 0.5L247.236 1.5C251.8 1.5 255.5 5.1998 255.5 9.76374L256.5 9.76374ZM247.236 0.5L9.75999 0.499989L9.75999 1.49999L247.236 1.5L247.236 0.5ZM9.75999 0.499989C4.64584 0.499989 0.5 4.64584 0.5 9.75999L1.5 9.75999C1.5 5.19812 5.19812 1.49999 9.75999 1.49999L9.75999 0.499989ZM0.5 9.75999L0.499998 45.794L1.5 45.794L1.5 9.75999L0.5 9.75999ZM0.724641 46.2114C6.01258 49.7003 9.5 55.693 9.5 62.5L10.5 62.5C10.5 55.3429 6.83187 49.0428 1.27535 45.3767L0.724641 46.2114ZM9.5 62.5C9.5 69.307 6.01258 75.2997 0.72464 78.7886L1.27535 79.6233C6.83186 75.9572 10.5 69.6571 10.5 62.5L9.5 62.5ZM0.499997 79.206L0.499997 81L1.5 81L1.5 79.206L0.499997 79.206ZM0.999996 81.5L256 81.5L256 80.5L0.999997 80.5L0.999996 81.5ZM256.5 81L256.5 80.1041L255.5 80.1041L255.5 81L256.5 81ZM256.238 79.6643C250.14 76.3668 246 69.9165 246 62.5L245 62.5C245 70.2982 249.354 77.0787 255.762 80.5439L256.238 79.6643ZM246 62.5C246 55.0835 250.14 48.6332 256.238 45.3357L255.762 44.4561C249.354 47.9213 245 54.7017 245 62.5L246 62.5Z" fill="#BCCAFF"/><path stroke="#BCCAFF" stroke-dasharray="2 2" d="M244.5 61.5L10.5 61.5"/></svg>