<svg width="55" height="55" viewBox="0 0 55 55" fill="none" xmlns="http://www.w3.org/2000/svg"><circle cx="27.5" cy="27.5" fill="#4C77A6" r="27.5"/><path d="M35.9496 29.8636C36.7917 30.7111 37.6804 31.5084 38.4356 32.4412C38.7692 32.8558 39.0851 33.2836 39.3267 33.7647C39.6691 34.4486 39.359 35.2012 38.7641 35.242L35.066 35.2403C34.1122 35.3219 33.3513 34.9261 32.7115 34.2539C32.1995 33.7163 31.7253 33.1441 31.233 32.5884C31.0312 32.3613 30.8199 32.1476 30.5675 31.9786C30.0627 31.6408 29.6245 31.7443 29.336 32.287C29.0422 32.839 28.9755 33.4503 28.9467 34.0655C28.907 34.9631 28.6438 35.1991 27.7691 35.2402C25.8997 35.3311 24.1255 35.0395 22.4774 34.0675C21.0244 33.2105 19.8976 32.0007 18.9168 30.6311C17.0073 27.9642 15.545 25.0337 14.2307 22.0211C13.9349 21.3423 14.1513 20.978 14.8778 20.9651C16.0842 20.9409 17.2905 20.9427 18.4983 20.9634C18.9886 20.9708 19.3133 21.2607 19.5026 21.7382C20.1553 23.3925 20.954 24.9665 21.9565 26.4254C22.2234 26.8138 22.4957 27.2022 22.8833 27.4756C23.3122 27.7783 23.6387 27.678 23.8405 27.1856C23.9685 26.8733 24.0245 26.537 24.0534 26.2026C24.149 25.052 24.1616 23.9034 23.9939 22.7569C23.891 22.0414 23.5 21.5782 22.8073 21.4428C22.4539 21.3737 22.5065 21.2381 22.6777 21.0302C22.9749 20.6715 23.2545 20.4482 23.8118 20.4482H27.9912C28.6492 20.5821 28.7953 20.8868 28.8854 21.5692L28.8889 26.3546C28.8818 26.6188 29.017 27.4028 29.4786 27.5777C29.8481 27.7022 30.0916 27.3975 30.3133 27.156C31.314 26.0612 32.0282 24.7674 32.6662 23.4277C32.9494 22.8387 33.1928 22.2269 33.4288 21.6156C33.6036 21.1621 33.8779 20.9389 34.3735 20.9488L38.396 20.9525C38.5153 20.9525 38.636 20.9543 38.7515 20.9746C39.4293 21.0937 39.615 21.3943 39.4057 22.0765C39.0758 23.147 38.434 24.039 37.8065 24.9352C37.1357 25.8919 36.4183 26.816 35.753 27.7784C35.1419 28.6573 35.1904 29.1003 35.9496 29.8636V29.8636Z" fill="#fff"/></svg>