<svg width="55" height="55" viewBox="0 0 55 55" fill="none" xmlns="http://www.w3.org/2000/svg"><path d="M0 27.5C0 12.3122 12.3122 0 27.5 0C42.6878 0 55 12.3122 55 27.5C55 42.6878 42.6878 55 27.5 55C12.3122 55 0 42.6878 0 27.5Z" fill="#20B038"/><path d="M11.4014 42.9205L13.6797 34.6513C12.2697 32.2331 11.5288 29.482 11.5288 26.6754C11.5368 17.875 18.7302 10.7158 27.5726 10.7158C31.8663 10.7158 35.8892 12.3808 38.9164 15.3935C41.9435 18.4062 43.6084 22.4179 43.6084 26.6834C43.6084 35.4837 36.407 42.643 27.5726 42.643H27.5646C24.88 42.643 22.2433 41.9691 19.9012 40.7005L11.4014 42.9205Z" fill="#20B038"/><path d="M10.8193 43.4994L13.1773 34.9368C11.7195 32.4236 10.9548 29.5773 10.9627 26.6677C10.9627 17.5501 18.419 10.1372 27.5721 10.1372C32.0172 10.1372 36.1914 11.8576 39.3221 14.9814C42.4608 18.1051 44.1894 22.2595 44.1815 26.6756C44.1815 35.7931 36.7252 43.206 27.5641 43.206H27.5562C24.776 43.206 22.0436 42.5083 19.6139 41.1922L10.8193 43.4994ZM20.0361 38.2033L20.538 38.5046C22.657 39.7572 25.0867 40.4153 27.5641 40.4232H27.5721C35.1797 40.4232 41.3774 34.2629 41.3774 26.6835C41.3774 23.0127 39.9435 19.5639 37.3386 16.9634C34.7336 14.363 31.2604 12.9359 27.5721 12.9359C19.9644 12.928 13.7668 19.0882 13.7668 26.6677C13.7668 29.2602 14.4917 31.7893 15.8778 33.9775L16.2044 34.5008L14.8104 39.5669L20.0361 38.2033Z" fill="url(#paint0_linear_0_489)"/><path fill-rule="evenodd" clip-rule="evenodd" d="M23.4215 19.7542C23.1108 19.0644 22.7842 19.0486 22.4895 19.0406C22.2505 19.0327 21.9717 19.0327 21.6929 19.0327C21.4141 19.0327 20.968 19.1358 20.5856 19.5481C20.2032 19.9603 19.1357 20.9593 19.1357 22.9969C19.1357 25.0265 20.6254 26.9927 20.8325 27.2702C21.0396 27.5477 23.7083 31.8527 27.9224 33.5097C31.4275 34.8893 32.1444 34.6118 32.9012 34.5404C33.658 34.4691 35.3548 33.5414 35.7053 32.5742C36.0478 31.607 36.0478 30.7824 35.9443 30.608C35.8407 30.4336 35.5619 30.3305 35.1477 30.1244C34.7334 29.9182 32.6941 28.9193 32.3117 28.7766C31.9293 28.6418 31.6505 28.5704 31.3797 28.9827C31.1009 29.395 30.3043 30.3226 30.0653 30.6001C29.8263 30.8776 29.5793 30.9093 29.1651 30.7031C28.7509 30.497 27.4125 30.0609 25.8273 28.6497C24.5925 27.5556 23.7561 26.1999 23.5171 25.7876C23.2781 25.3753 23.4932 25.1533 23.7003 24.9472C23.8836 24.7649 24.1146 24.4636 24.3217 24.2257C24.5288 23.9879 24.6005 23.8135 24.7359 23.536C24.8714 23.2585 24.8076 23.0206 24.7041 22.8145C24.6005 22.6163 23.788 20.5708 23.4215 19.7542Z" fill="#fff"/><defs><linearGradient id="paint0_linear_0_489" x1="27.504" y1="43.496" x2="27.504" y2="10.137" gradientUnits="userSpaceOnUse"><stop stop-color="#F9F9F9"/><stop offset="1" stop-color="#fff"/></linearGradient></defs></svg>